<mxfile host="app.diagrams.net" modified="2021-05-31T07:53:18.785Z" agent="5.0 (Macintosh; Intel Mac OS X 10_14_6) AppleWebKit/537.36 (KHTML, like Gecko) Chrome/90.0.4430.212 Safari/537.36" etag="-EVTp_uYJdb8u9ORuPJC" version="14.7.3" type="github">
  <diagram id="9mB9bRpuD31JxS1iDBVY" name="Page-1">
    <mxGraphModel dx="603" dy="573" grid="1" gridSize="10" guides="1" tooltips="1" connect="1" arrows="1" fold="1" page="1" pageScale="1" pageWidth="827" pageHeight="1169" math="0" shadow="0">
      <root>
        <mxCell id="0" />
        <mxCell id="1" parent="0" />
        <mxCell id="XdzyO8bKT-Es0RoWoFWs-6" value="" style="rounded=0;whiteSpace=wrap;html=1;" vertex="1" parent="1">
          <mxGeometry x="60" y="130" width="350" height="450" as="geometry" />
        </mxCell>
        <mxCell id="XdzyO8bKT-Es0RoWoFWs-1" value="" style="rounded=0;whiteSpace=wrap;html=1;" vertex="1" parent="1">
          <mxGeometry x="110" y="270" width="60" height="230" as="geometry" />
        </mxCell>
        <mxCell id="XdzyO8bKT-Es0RoWoFWs-2" value="Browzer" style="text;html=1;strokeColor=none;fillColor=none;align=center;verticalAlign=middle;whiteSpace=wrap;rounded=0;" vertex="1" parent="1">
          <mxGeometry x="120" y="240" width="40" height="20" as="geometry" />
        </mxCell>
        <mxCell id="XdzyO8bKT-Es0RoWoFWs-3" value="" style="rounded=0;whiteSpace=wrap;html=1;" vertex="1" parent="1">
          <mxGeometry x="270" y="370" width="80" height="130" as="geometry" />
        </mxCell>
        <mxCell id="XdzyO8bKT-Es0RoWoFWs-4" value="Cache" style="text;html=1;strokeColor=none;fillColor=none;align=center;verticalAlign=middle;whiteSpace=wrap;rounded=0;" vertex="1" parent="1">
          <mxGeometry x="290" y="380" width="40" height="20" as="geometry" />
        </mxCell>
        <mxCell id="XdzyO8bKT-Es0RoWoFWs-7" value="Your computer" style="text;html=1;strokeColor=none;fillColor=none;align=center;verticalAlign=middle;whiteSpace=wrap;rounded=0;" vertex="1" parent="1">
          <mxGeometry x="250" y="170" width="90" as="geometry" />
        </mxCell>
        <mxCell id="XdzyO8bKT-Es0RoWoFWs-10" value="1.hit cache" style="text;html=1;strokeColor=none;fillColor=none;align=center;verticalAlign=middle;whiteSpace=wrap;rounded=0;" vertex="1" parent="1">
          <mxGeometry x="190" y="400" width="70" height="30" as="geometry" />
        </mxCell>
        <mxCell id="XdzyO8bKT-Es0RoWoFWs-12" style="edgeStyle=orthogonalEdgeStyle;rounded=0;orthogonalLoop=1;jettySize=auto;html=1;exitX=1;exitY=1;exitDx=0;exitDy=0;entryX=0.943;entryY=0.997;entryDx=0;entryDy=0;entryPerimeter=0;" edge="1" parent="1" source="XdzyO8bKT-Es0RoWoFWs-6" target="XdzyO8bKT-Es0RoWoFWs-6">
          <mxGeometry relative="1" as="geometry" />
        </mxCell>
        <mxCell id="XdzyO8bKT-Es0RoWoFWs-13" value="" style="rounded=0;whiteSpace=wrap;html=1;" vertex="1" parent="1">
          <mxGeometry x="540" y="130" width="220" height="450" as="geometry" />
        </mxCell>
        <mxCell id="XdzyO8bKT-Es0RoWoFWs-14" value="" style="endArrow=classic;html=1;" edge="1" parent="1" target="XdzyO8bKT-Es0RoWoFWs-6">
          <mxGeometry width="50" height="50" relative="1" as="geometry">
            <mxPoint x="370" y="430" as="sourcePoint" />
            <mxPoint x="420" y="380" as="targetPoint" />
          </mxGeometry>
        </mxCell>
        <mxCell id="XdzyO8bKT-Es0RoWoFWs-15" value="" style="endArrow=classic;html=1;exitX=0.99;exitY=0.701;exitDx=0;exitDy=0;exitPerimeter=0;entryX=-0.025;entryY=0.449;entryDx=0;entryDy=0;entryPerimeter=0;" edge="1" parent="1" source="XdzyO8bKT-Es0RoWoFWs-1" target="XdzyO8bKT-Es0RoWoFWs-3">
          <mxGeometry width="50" height="50" relative="1" as="geometry">
            <mxPoint x="250" y="430" as="sourcePoint" />
            <mxPoint x="300" y="380" as="targetPoint" />
          </mxGeometry>
        </mxCell>
      </root>
    </mxGraphModel>
  </diagram>
</mxfile>
